<svg width="107" height="18" viewBox="0 0 107 18" fill="none" xmlns="http://www.w3.org/2000/svg">
<g clip-path="url(#clip0_13_142)">
<path d="M41.6311 1.83262C41.6311 1.40678 41.8001 0.998378 42.1008 0.697263C42.4015 0.396147 42.8095 0.226982 43.2348 0.226982C43.6601 0.226982 44.068 0.396147 44.3687 0.697263C44.6694 0.998378 44.8384 1.40678 44.8384 1.83262C44.8229 2.24809 44.6472 2.64138 44.3481 2.92983C44.0491 3.21828 43.65 3.37944 43.2348 3.37944C42.8195 3.37944 42.4204 3.21828 42.1214 2.92983C41.8223 2.64138 41.6466 2.24809 41.6311 1.83262Z" fill="#C4CBD1"/>
<path d="M66.9331 12.541C66.9331 11.6498 67.6501 10.9297 68.5334 10.9297C68.96 10.9297 69.369 11.0994 69.6706 11.4013C69.9722 11.7033 70.1416 12.1128 70.1416 12.5398C70.1416 12.9669 69.9722 13.3764 69.6706 13.6784C69.369 13.9803 68.96 14.15 68.5334 14.15C67.6512 14.15 66.9331 13.4288 66.9331 12.5398" fill="#C4CBD1"/>
<path d="M15.3129 11.8444C13.9326 11.8444 12.9722 10.7464 12.9722 9.17651C12.9722 7.60777 13.9326 6.51089 15.314 6.51089C16.7021 6.51089 17.6726 7.60777 17.6726 9.17651C17.6726 10.771 16.7234 11.8444 15.3129 11.8444ZM15.3129 4.16617C12.3915 4.16617 10.2708 6.27384 10.2708 9.17651C10.2708 12.0803 12.3927 14.1869 15.3129 14.1869C18.2466 14.1869 20.3751 12.0803 20.3751 9.17763C20.3751 6.27384 18.2466 4.16617 15.314 4.16617H15.3129ZM38.5254 9.42809C38.4238 9.2312 38.2953 9.04944 38.1435 8.88803L38.0542 8.79523L38.148 8.70578C38.282 8.56378 38.4194 8.39606 38.5511 8.2015L41.1308 4.36407H37.9995L36.0619 7.36626C35.9525 7.52727 35.7314 7.60777 35.3997 7.60777H34.9586V1.93214C34.9586 0.797235 34.2517 0.642933 33.489 0.642933H32.1824L32.1857 14.0393H34.9597V10.0207H35.2199C35.536 10.0207 35.7503 10.0576 35.8497 10.2298L37.3797 13.1213C37.8074 13.9062 38.2328 14.0393 39.0347 14.0393H41.1598L39.5763 11.4184L38.5266 9.42809H38.5254ZM51.9911 4.1438C50.5796 4.1438 49.6794 4.77219 49.1747 5.3033L49.0072 5.47326L48.9469 5.24181C48.7995 4.67268 48.2992 4.36072 47.5476 4.36072H46.3047L46.3125 14.0359H49.0675V9.5768C49.0675 9.14073 49.1233 8.7628 49.2394 8.4173C49.5454 7.37185 50.4009 6.72221 51.4696 6.72221C52.3295 6.72221 52.6657 7.17729 52.6657 8.35133V12.5656C52.6657 13.5674 53.129 14.0359 54.1308 14.0359H55.4418L55.4374 7.88172C55.4374 5.43748 54.2458 4.14492 51.9911 4.14492V4.1438ZM43.2682 4.36407H41.9628L41.9717 11.8455V14.0393H43.3643L43.4134 14.0415L44.0634 14.0393H44.7089V14.0359H44.7133L44.7189 5.83442C44.7189 4.84487 44.2466 4.36519 43.2694 4.36519L43.2682 4.36407ZM26.133 11.8444C24.7527 11.8444 23.7912 10.7464 23.7912 9.17651C23.7912 7.60777 24.7527 6.51089 26.1342 6.51089C27.5189 6.51089 28.4927 7.60777 28.4927 9.17651C28.4927 10.771 27.5435 11.8444 26.1342 11.8444H26.133ZM26.133 4.16617C23.2094 4.16617 21.0876 6.27384 21.0876 9.17651C21.0876 12.0803 23.2094 14.1869 26.1342 14.1869C29.0634 14.1869 31.1963 12.0803 31.1963 9.17763C31.1963 6.27384 29.0634 4.16617 26.1342 4.16617" fill="#C4CBD1"/>
<path d="M85.1806 11.8443C83.8003 11.8443 82.8377 10.7463 82.8377 9.17648C82.8377 7.60774 83.8003 6.51086 85.1806 6.51086C86.5676 6.51086 87.5403 7.60774 87.5403 9.17648C87.5403 10.7709 86.591 11.8443 85.1806 11.8443ZM85.1806 4.16614C82.257 4.16614 80.1364 6.27381 80.1364 9.17648C80.1364 12.0803 82.257 14.1868 85.1806 14.1868C88.1109 14.1868 90.2427 12.0803 90.2427 9.1776C90.2427 6.27381 88.1098 4.16614 85.1806 4.16614Z" fill="#C4CBD1"/>
<path d="M61.2456 11.4183C59.7391 11.4183 59.2031 10.1034 59.2031 8.87011C59.2031 8.32669 59.3404 6.55669 61.1015 6.55669C61.9759 6.55669 63.1406 6.80716 63.1406 8.96068C63.1406 10.9923 62.1099 11.4183 61.2456 11.4183ZM64.5712 4.33832C64.0485 4.33832 63.6465 4.54741 63.4444 4.92869L63.3685 5.07629L63.2412 4.96447C62.7967 4.57984 61.9993 4.12252 60.705 4.12252C58.1287 4.12252 56.3944 6.06024 56.3944 8.94167C56.3944 11.822 58.189 13.8346 60.7564 13.8346C61.6331 13.8346 62.3265 13.6289 62.876 13.2129L63.0881 13.053V13.3214C63.0881 14.6139 62.2539 15.3273 60.7408 15.3273C60.0048 15.3273 59.3359 15.1484 58.887 14.9852C58.3041 14.8085 57.9601 14.955 57.7245 15.542L57.5056 16.0832L57.1962 16.8748L57.3872 16.9766C58.3565 17.4909 59.6174 17.7984 60.7564 17.7984C63.1016 17.7984 65.842 16.5964 65.842 13.2129L65.8521 4.33832H64.5712Z" fill="#C4CBD1"/>
<path d="M5.05481 11.7337L2.8124 11.7314V9.04792C2.8124 8.4732 3.03463 8.17578 3.52488 8.10645H5.05481C6.14587 8.10645 6.85163 8.79522 6.85275 9.91C6.85163 11.055 6.16373 11.7326 5.05481 11.7326V11.7337ZM2.8124 4.49266V3.786C2.8124 3.16767 3.07373 2.8736 3.64662 2.83559H4.79464C5.77849 2.83559 6.36813 3.42484 6.36813 4.41215C6.36813 5.16353 5.96385 6.04127 4.83036 6.04127H2.8124V4.49266ZM7.91816 7.1717L7.51274 6.9436L7.86677 6.64059C8.27884 6.28614 8.9679 5.48891 8.9679 4.11361C8.9679 2.00705 7.33745 0.647402 4.8125 0.647402H1.60296C1.24182 0.660585 0.899615 0.812384 0.647219 1.07134C0.394822 1.3303 0.251602 1.67655 0.247253 2.03836V13.9912H4.86941C7.67578 13.9912 9.48715 12.4616 9.48715 10.0923C9.48715 8.81647 8.90201 7.72629 7.91816 7.1717Z" fill="#C4CBD1"/>
<path d="M102.548 4.17622C101.98 4.17832 101.419 4.30832 100.907 4.55662C100.395 4.80492 99.9453 5.16518 99.5911 5.61079L99.3924 5.86348L99.236 5.5806C98.7246 4.64919 97.8468 4.17622 96.6262 4.17622C95.3453 4.17622 94.4865 4.89183 94.0878 5.31672L93.8265 5.5996L93.726 5.22727C93.5808 4.69056 93.104 4.39649 92.3826 4.39649H91.2245L91.2133 14.0348H93.8433V9.7803C93.8433 9.40684 93.8902 9.03897 93.9829 8.65322C94.2341 7.62454 94.9242 6.51871 96.0845 6.6294C96.7993 6.69873 97.15 7.2522 97.15 8.32114V14.0348H99.7989V9.7803C99.7989 9.31404 99.8424 8.96518 99.9474 8.61632C100.16 7.6346 100.881 6.62828 102 6.62828C102.811 6.62828 103.11 7.08672 103.11 8.32114V12.6259C103.11 13.5987 103.543 14.0348 104.516 14.0348H105.753L105.756 7.88171C105.756 5.42294 104.675 4.17622 102.548 4.17622ZM78.612 10.6882C78.6042 10.6983 77.4729 11.8924 75.9821 11.8924C74.6241 11.8924 73.2528 11.0583 73.2528 9.19663C73.2528 7.58876 74.3159 6.46504 75.8391 6.46504C76.3327 6.46504 76.8956 6.6417 76.9838 6.94024L76.9961 6.99056C77.0524 7.19609 77.1748 7.37729 77.3444 7.50607C77.514 7.63484 77.7213 7.704 77.9341 7.70281L79.3748 7.70504V6.44379C79.3748 4.78001 77.2607 4.17622 75.8391 4.17622C72.7971 4.17622 70.5904 6.2962 70.5904 9.21676C70.5904 12.1351 72.7726 14.2528 75.7833 14.2528C78.3943 14.2528 79.8148 12.5343 79.8282 12.5175L79.9041 12.4236L78.7627 10.5283L78.612 10.6882Z" fill="#C4CBD1"/>
</g>
<defs>
<clipPath id="clip0_13_142">
<rect width="106" height="18" fill="white" transform="translate(0.00152588)"/>
</clipPath>
</defs>
</svg>
