<svg width="136" height="18" viewBox="0 0 136 18" fill="none" xmlns="http://www.w3.org/2000/svg">
<mask id="mask0_13_160" style="mask-type:alpha" maskUnits="userSpaceOnUse" x="0" y="0" width="14" height="18">
<path d="M0.002125 0.114594H13.3787V17.5266H0.00152588L0.002125 0.114594Z" fill="white"/>
</mask>
<g mask="url(#mask0_13_160)">
<path d="M10.7665 5.06519C10.7665 6.41519 10.3279 7.43579 9.46281 8.09999C8.5899 8.76959 7.24368 9.10927 5.4625 9.10927C5.1198 9.11042 4.7772 9.09721 4.43561 9.06959C4.14923 9.04559 3.87723 9.01019 3.6256 8.96459V2.59259C3.6256 1.93439 3.79575 1.49579 4.13065 1.28939C4.48114 1.07339 5.14736 0.964189 6.11014 0.964189C7.60195 0.964189 8.76424 1.32359 9.56526 2.03219C10.3621 2.73899 10.7665 3.75959 10.7665 5.06519ZM11.253 1.43519C9.85703 0.559188 7.89372 0.115189 5.41696 0.115189C5.21087 0.115189 4.89333 0.121789 4.41883 0.137989C3.97908 0.152989 3.48301 0.176389 2.945 0.206989L-0.00985718 0.367789V1.00619L0.081808 1.01039C0.4275 1.02419 0.668945 1.16939 0.819923 1.45319C0.97809 1.75199 1.05837 2.27819 1.05837 3.01799V14.9112C1.05837 15.6204 0.97809 16.1358 0.819323 16.4418C0.668945 16.7328 0.428099 16.8798 0.0836054 16.8864L-0.00985718 16.8882V17.5272H4.69443V16.8882L4.60036 16.8864C4.25527 16.8804 4.01442 16.7364 3.86405 16.4526C3.70588 16.1544 3.6256 15.636 3.6256 14.9106V9.81299C4.00005 9.86699 4.38168 9.90959 4.76153 9.94079C5.17672 9.97559 5.60029 9.99299 6.01968 9.99299C8.35384 9.99299 10.1806 9.56759 11.4483 8.72939C12.7292 7.88219 13.3787 6.66539 13.3787 5.11139C13.3787 3.55739 12.6633 2.32019 11.253 1.43519Z" fill="#C4CBD1"/>
</g>
<path d="M26.7528 13.8114L26.0907 13.5894L26.05 13.6476C25.6606 14.2008 25.2939 14.6616 24.962 15.0174C24.6325 15.369 24.3203 15.63 24.0346 15.7926C23.5642 16.057 23.0535 16.2419 22.523 16.3398C21.9598 16.4496 21.0653 16.5054 19.8647 16.5054C18.8761 16.5054 18.4975 16.3746 18.3531 16.2654C18.2153 16.1604 18.0506 15.852 18.0506 14.9796V3.0174C18.0506 2.2782 18.1308 1.7514 18.289 1.4532C18.4406 1.1688 18.682 1.0236 19.0271 1.0098L19.1188 1.0062V0.3672H14.3696V1.0062L14.4612 1.0098C14.8063 1.0236 15.0484 1.1724 15.1987 1.464C15.3575 1.7712 15.4384 2.2938 15.4384 3.018V14.9106C15.4384 15.6198 15.3593 16.1334 15.2041 16.4364C15.0568 16.7244 14.8129 16.8618 14.4594 16.8828L14.3696 16.8882V17.5266H25.8505L26.7534 13.8114H26.7528ZM39.638 15.7974C40.0155 15.291 40.291 14.622 40.457 13.809C40.6206 13.005 40.7032 11.7894 40.7032 10.1946V4.686C40.7032 3.4542 40.8135 2.559 41.031 2.0256C41.2454 1.5 41.6031 1.188 42.1244 1.0272L42.1927 1.0062V0.3672H38.0677V1.0062L38.1486 1.0194C38.6806 1.1064 39.0605 1.4124 39.3097 1.9764C39.5643 2.5506 39.6931 3.4242 39.6931 4.5708V10.1718C39.6931 11.9808 39.5853 13.2738 39.3732 14.0154C39.1647 14.7474 38.798 15.333 38.2858 15.7554C37.878 16.0813 37.4102 16.3237 36.909 16.4688C36.3908 16.6224 35.7611 16.7004 35.038 16.7004C33.491 16.7004 32.3839 16.3056 31.7464 15.528C31.1054 14.7444 30.78 13.3644 30.78 11.4258V3.0174C30.78 2.2782 30.8603 1.7514 31.0185 1.4532C31.1695 1.1688 31.4109 1.0236 31.7566 1.0098L31.8483 1.0062V0.3672H27.099V1.0062L27.1907 1.0098C27.5358 1.0236 27.7773 1.1724 27.9282 1.464C28.087 1.77 28.1679 2.2932 28.1679 3.018V10.9542C28.1679 12.3816 28.2488 13.4442 28.4087 14.1114C28.5705 14.7852 28.8401 15.3684 29.2115 15.8454C29.7424 16.5078 30.4571 17.0226 31.336 17.3754C32.2107 17.7276 33.231 17.9058 34.3676 17.9058C35.594 17.9058 36.652 17.7318 37.5111 17.3874C38.3769 17.0406 39.0922 16.506 39.638 15.7974ZM57.4744 15.1302C57.4894 15.2442 57.5007 15.348 57.5079 15.4422C57.5157 15.5352 57.5193 15.6222 57.5193 15.705C57.5193 16.0482 57.433 16.329 57.2623 16.5408C57.0927 16.7508 56.8711 16.8606 56.5853 16.8816L56.496 16.8876V17.5266H61.2003V16.8882L61.1248 16.8714C60.8438 16.809 60.5976 16.593 60.3939 16.1994C60.1794 15.789 60.0182 15.2154 59.9146 14.4954L58.2886 2.9316C58.2439 2.67099 58.2216 2.40702 58.2221 2.1426C58.2221 1.8144 58.3012 1.5486 58.4569 1.3524C58.6103 1.1592 58.8314 1.0506 59.116 1.0158L59.1998 1.0056V0.3672H55.5404L51.9739 13.7004L48.1611 0.3672H44.2878V1.0062L44.3483 1.0302C44.7137 1.1754 44.9744 1.3404 45.1211 1.5744C45.2697 1.8108 45.3446 2.1606 45.3446 2.6154C45.3446 2.8698 45.3374 3.1272 45.3219 3.3858L45.323 3.4524L43.8229 13.5972C43.6809 14.5776 43.446 15.3534 43.1243 15.9024C42.8103 16.44 42.4113 16.7544 41.9398 16.8702L41.8667 16.8882V17.5266H46.184V16.8882L46.1049 16.8744C45.6598 16.7946 45.3326 16.593 45.1062 16.2336C44.8785 15.8712 44.7635 15.36 44.7635 14.7156C44.7635 14.5506 44.7725 14.3598 44.7916 14.1492C44.8096 13.9416 44.8378 13.7112 44.8755 13.464L46.3481 3.18L50.6205 17.7108H51.9361L55.7903 3.2112L57.4744 15.1302ZM95.7485 15.7974C96.1259 15.291 96.4015 14.622 96.5675 13.809C96.7304 13.005 96.8131 11.7894 96.8131 10.1946V4.686C96.8131 3.4542 96.924 2.559 97.1414 2.0256C97.3553 1.5 97.7136 1.188 98.2348 1.0272L98.3025 1.0062V0.3672H94.1782V1.0062L94.2585 1.0194C94.7905 1.1064 95.1703 1.4124 95.4196 1.9764C95.6742 2.5506 95.8036 3.4242 95.8036 4.5708V10.1718C95.8036 11.9808 95.6958 13.2738 95.4831 14.0154C95.2746 14.7474 94.9085 15.333 94.3963 15.7554C93.9885 16.0813 93.5207 16.3237 93.0195 16.4688C92.5013 16.6224 91.8716 16.7004 91.1479 16.7004C89.6009 16.7004 88.4938 16.3056 87.8569 15.528C87.2158 14.7444 86.8899 13.3644 86.8899 11.4258V3.0174C86.8899 2.2782 86.9702 1.7514 87.129 1.4532C87.2794 1.1688 87.5208 1.0236 87.8665 1.0098L87.9587 1.0062V0.3672H83.2089V1.0062L83.3006 1.0098C83.6457 1.0236 83.8871 1.1724 84.0381 1.464C84.1969 1.77 84.2778 2.2932 84.2778 3.018V10.9542C84.2778 12.3816 84.3586 13.4442 84.5186 14.1114C84.6804 14.7852 84.95 15.3684 85.3214 15.8454C85.8522 16.5078 86.5676 17.0226 87.4465 17.3754C88.3212 17.7276 89.3409 17.9058 90.4774 17.9058C91.7044 17.9058 92.7619 17.7318 93.6216 17.3874C94.4868 17.0406 95.2021 16.506 95.7485 15.7974ZM81.7729 15.2634C81.4907 15.249 81.2768 15.1314 81.1192 14.9016C80.9574 14.6658 80.8748 14.3364 80.8748 13.9218V8.8272C80.8748 8.4504 80.9586 8.2074 81.1246 7.9728C81.2846 7.7448 81.4841 7.6338 81.7339 7.6338H81.8298V6.993H72.9838V7.6338C72.9838 7.6338 73.3672 7.6644 73.6997 7.6782C74.8099 7.722 77.1087 7.7568 77.7635 8.073C78.1769 8.2722 78.3986 8.7018 78.3986 9.183V14.3478C78.3986 15.1536 78.0433 15.8094 77.343 16.2978C76.6318 16.794 75.6726 17.0454 74.493 17.0454C72.6782 17.0454 71.2841 16.3554 70.3488 14.9934C69.4058 13.6224 68.9277 11.5818 68.9277 8.9298C68.9277 6.3324 69.3891 4.3272 70.2979 2.9694C71.1996 1.6236 72.5224 0.9414 74.2317 0.9414C75.3731 0.9414 76.4245 1.2912 77.3585 1.9812C78.2944 2.6724 79.0451 3.6576 79.5891 4.9092L79.613 4.9632L80.1492 4.9944L80.8424 2.007L80.7849 1.9704C79.767 1.3176 78.7623 0.8214 77.7971 0.4938C76.8283 0.1662 75.8739 0 74.9591 0C73.8243 0 72.7363 0.192 71.7256 0.57C70.7143 0.948 69.8294 1.4928 69.0967 2.1882C68.1498 3.07923 67.4021 4.16095 66.9027 5.3622C66.4072 6.5568 66.1562 7.866 66.1562 9.252C66.1562 10.3782 66.3264 11.4588 66.6613 12.4638C66.9974 13.4718 67.4773 14.3478 68.089 15.0654C68.8972 16.0314 69.8013 16.7538 70.776 17.2134C71.7502 17.673 72.8669 17.9064 74.0951 17.9064C75.2574 17.9064 76.4898 17.727 77.7582 17.3742C79.0235 17.0214 80.3907 16.4736 81.8226 15.7458L81.8777 15.7176L81.8597 15.2676L81.7729 15.2634ZM99.6314 1.0062L99.723 1.0098C100.068 1.0236 100.31 1.1724 100.46 1.464C100.619 1.7712 100.7 2.2944 100.7 3.018V14.9106C100.7 15.6198 100.621 16.1334 100.466 16.4364C100.319 16.7244 100.075 16.8618 99.7213 16.8828L99.6314 16.8882V17.5266H104.381V16.8882L104.289 16.8846C103.935 16.8714 103.692 16.7274 103.545 16.4466C103.39 16.1526 103.312 15.6354 103.312 14.9106V3.0174C103.312 2.2782 103.393 1.7514 103.551 1.4532C103.702 1.1688 103.943 1.0236 104.289 1.0098L104.381 1.0062V0.3672H99.6314V1.0062ZM109.919 15.1866V3.0174C109.919 2.2746 110.105 1.7754 110.471 1.5348C110.852 1.2858 111.682 1.1592 112.937 1.1592C114.897 1.1592 116.376 1.8156 117.335 3.1104C118.298 4.4136 118.787 6.4254 118.787 9.0906C118.787 11.8446 118.273 13.8114 117.26 14.9376C116.25 16.0614 114.474 16.6314 111.983 16.6314C111.099 16.6314 110.527 16.53 110.281 16.3302C110.041 16.1358 109.919 15.7512 109.919 15.1866ZM117.153 1.1826C116.511 0.8508 115.785 0.6066 114.996 0.4554C114.208 0.3054 113.194 0.2292 111.983 0.2292C111.565 0.2292 111.218 0.2316 110.941 0.2352C110.664 0.2394 110.386 0.2454 110.105 0.2526L106.283 0.3672V1.0062L106.375 1.0098C106.72 1.0236 106.962 1.1688 107.113 1.4538C107.271 1.752 107.352 2.2782 107.352 3.0174V14.9106C107.352 15.6204 107.271 16.1358 107.112 16.4418C106.962 16.7328 106.721 16.8798 106.377 16.8858L106.283 16.8882V17.5266H112.574C115.374 17.5266 117.594 16.7826 119.175 15.3162C120.756 13.8462 121.559 11.7834 121.559 9.1824C121.559 7.4184 121.161 5.802 120.375 4.3794C119.589 2.9544 118.505 1.8786 117.153 1.1832V1.1826ZM135.309 13.6008L135.26 13.6698C134.751 14.3898 134.263 14.9544 133.809 15.3498C133.359 15.7416 132.884 16.0242 132.4 16.1874C132.011 16.3074 131.555 16.3956 131.043 16.4478C130.529 16.5012 129.648 16.5282 128.427 16.5282C127.184 16.5282 126.739 16.3968 126.583 16.287C126.436 16.182 126.26 15.8694 126.26 14.9796V8.3592H128.916C130.152 8.3592 130.977 8.4714 131.37 8.6922C131.756 8.9094 132.051 9.3096 132.247 9.8814L132.269 9.9468H132.842V5.7168H132.292L132.27 5.7816C132.074 6.3588 131.726 6.7674 131.234 6.996C130.73 7.23 129.838 7.35 128.586 7.35H126.26V2.616C126.26 1.9122 126.383 1.6644 126.486 1.581C126.594 1.4934 126.933 1.389 127.938 1.389H128.654C130.622 1.389 131.957 1.5714 132.622 1.9302C133.279 2.2842 133.784 2.9364 134.123 3.8682L134.15 3.9414L134.804 3.849L134.517 0.3672H122.625V1.0062L122.717 1.0098C123.062 1.0236 123.304 1.1688 123.455 1.4538C123.613 1.7526 123.693 2.2788 123.693 3.0174V14.9106C123.693 15.6198 123.613 16.137 123.454 16.4442C123.304 16.7346 123.063 16.8798 122.719 16.8864L122.625 16.8882V17.5266H134.921L135.94 13.9422L135.309 13.6008Z" fill="#C4CBD1"/>
</svg>
